<?xml version="1.0" encoding="utf-8"?>
<!-- Generator: Adobe Illustrator 27.0.0, SVG Export Plug-In . SVG Version: 6.00 Build 0)  -->
<svg version="1.1" id="레이어_1" xmlns="http://www.w3.org/2000/svg" xmlns:xlink="http://www.w3.org/1999/xlink" x="0px"
	 y="0px" viewBox="0 0 64 64" style="enable-background:new 0 0 64 64;" xml:space="preserve">
<style type="text/css">
	.st0{fill:#FE724C;}
</style>
<path class="st0" d="M55.8,18L44.1,6.3c-1.7-1.7-4.7-0.5-4.7,1.9v2.2h-2.2c-2.4,0-3.7,2.9-1.9,4.7l2.5,2.5c0,0,0,0,0.1,0l-4.7,8
	c-0.6,0.9-1.4,1.7-2.4,2.2c-1,0.5-2.1,0.6-3.2,0.4l-17.2-2.8c-2.2-0.4-3.7,2.2-2.4,4c1.3,1.7,2,3.9,2.5,6.3
	c1.8,8.9,9.4,15.8,18.7,16.9v2.9h-3.4v2.7h4.8c0,0,0,0,0,0c0,0,0,0,0,0h8.2v-2.7h-6.8v-2.7c7.4,0,14-3.6,17.9-9
	c3.2-4.4,2.7-10,1.4-14.7l-0.7-2.5c-0.3-1.3-0.4-2.6-0.2-3.9c0,0,0,0,0.1,0h3.5C56.3,22.7,57.5,19.7,55.8,18z M42.1,10.4V8.2
	l2.3,2.3c-0.7,0.1-1.3,0.4-1.9,0.7c-0.2,0.1-0.5,0.3-0.7,0.5C42,11.3,42.1,10.8,42.1,10.4z M37.2,13.1h2.2c0.5,0,0.9-0.1,1.3-0.3
	c-0.2,0.2-0.3,0.4-0.4,0.6l-1,1.7L37.2,13.1z M47.6,42.1c-3.5,4.8-9.2,7.9-15.7,7.9c-2.6,0-5.2-0.5-7.4-1.5c0.5,0.1,1.1,0.1,1.6,0.1
	c9.3,0,16.8-8,16.8-17.8c0-0.4-0.1-0.7-0.4-1c-0.3-0.3-0.6-0.4-1-0.4c-0.4,0-0.7,0.1-1,0.4c-0.3,0.3-0.4,0.6-0.4,1
	c0,8.4-6.4,15-14,15c-4.3,0-8.1-2-10.7-5.3c-0.1-0.1-0.2-0.2-0.3-0.2c-0.9-1.6-1.6-3.4-2-5.3c-0.5-2.3-1.2-4.8-2.6-6.9l16.6,2.7
	c1.6,0.3,3.3,0,4.8-0.7c1.5-0.7,2.7-1.8,3.6-3.3l7.2-12.1c0.3-0.5,0.7-1,1.3-1.3c0.5-0.3,1.1-0.5,1.7-0.5c0.6,0,1.1,0.1,1.6,0.4
	c0.5,0.3,0.9,0.6,1.2,1.1c0.3,0.5,0.5,1,0.6,1.5c0.1,0.5,0,1.1-0.2,1.6L48.1,20c-0.8,2.3-0.9,4.9-0.2,7.3l0.7,2.5
	C49.8,34.2,50,38.8,47.6,42.1z M51,19.9l0.5-1.3h0c0.1-0.3,0.2-0.6,0.2-0.9l2.2,2.2H51z M46.5,14.9c0.3,0.3,0.4,0.6,0.4,1
	c0,0.4-0.1,0.7-0.4,1c-0.3,0.3-0.6,0.4-1,0.4c-0.4,0-0.7-0.1-1-0.4c-0.3-0.3-0.4-0.6-0.4-1c0-0.4,0.1-0.7,0.4-1
	c0.3-0.3,0.6-0.4,1-0.4C45.9,14.5,46.3,14.6,46.5,14.9z"/>
</svg>
