<?xml version="1.0" encoding="utf-8"?>
<!-- Generator: Adobe Illustrator 27.0.0, SVG Export Plug-In . SVG Version: 6.00 Build 0)  -->
<svg version="1.1" id="레이어_1" xmlns="http://www.w3.org/2000/svg" xmlns:xlink="http://www.w3.org/1999/xlink" x="0px"
	 y="0px" viewBox="0 0 64 64" style="enable-background:new 0 0 64 64;" xml:space="preserve">
<style type="text/css">
	.st0{fill:#FE724C;}
</style>
<path class="st0" d="M32,59.2c-5.7,0-11.3-2.4-15.3-6.5c-4.1-4.2-6.3-9.8-6.3-15.7c0-11.3,8.9-32.3,21.7-32.3
	c12.7,0,21.7,20.9,21.7,32.3c0,5.9-2.2,11.5-6.3,15.7C43.3,56.9,37.7,59.2,32,59.2z M32,8.9c-9,0-17.5,17.5-17.5,28.1
	c0,4.8,1.8,9.4,5.1,12.8c3.3,3.4,7.7,5.3,12.3,5.3c4.7,0,9-1.9,12.3-5.3c3.3-3.4,5.1-7.9,5.1-12.8C49.5,26.5,41,8.9,32,8.9z"/>
</svg>
