<?xml version="1.0" encoding="utf-8"?>
<!-- Generator: Adobe Illustrator 27.0.0, SVG Export Plug-In . SVG Version: 6.00 Build 0)  -->
<svg version="1.1" id="레이어_1" xmlns="http://www.w3.org/2000/svg" xmlns:xlink="http://www.w3.org/1999/xlink" x="0px"
	 y="0px" viewBox="0 0 64 64" style="enable-background:new 0 0 64 64;" xml:space="preserve">
<style type="text/css">
	.st0{fill:#FE724C;}
</style>
<path class="st0" d="M57.8,23.6c0,1.9-0.4,3.7-1.1,5.4c-0.7,1.7-1.7,3.3-3.1,4.6L32.8,54.5c-0.2,0.2-0.5,0.3-0.8,0.3
	s-0.6-0.1-0.8-0.3L10.3,33.5c-2.7-2.7-4.1-6.2-4.1-10s1.5-7.3,4.1-10c2.7-2.7,6.2-4.1,10-4.1c3.8,0,7.3,1.5,10,4.1l1.7,1.7l1.7-1.7
	c1.3-1.3,2.9-2.3,4.6-3.1c3.4-1.4,7.4-1.4,10.8,0c1.7,0.7,3.3,1.7,4.6,3.1c1.3,1.3,2.3,2.9,3.1,4.6C57.5,19.9,57.8,21.7,57.8,23.6z"
	/>
</svg>
