<?xml version="1.0" encoding="utf-8"?>
<!-- Generator: Adobe Illustrator 27.0.0, SVG Export Plug-In . SVG Version: 6.00 Build 0)  -->
<svg version="1.1" id="레이어_1" xmlns="http://www.w3.org/2000/svg" xmlns:xlink="http://www.w3.org/1999/xlink" x="0px"
	 y="0px" viewBox="0 0 64 64" style="enable-background:new 0 0 64 64;" xml:space="preserve">
<style type="text/css">
	.st0{fill:#FE724C;}
</style>
<path class="st0" d="M32,4.7C19,4.7,9.8,25.7,9.8,37.1c0,5.9,2.3,11.5,6.5,15.7c4.2,4.2,9.8,6.5,15.7,6.5c5.9,0,11.5-2.3,15.7-6.5
	c4.2-4.2,6.5-9.8,6.5-15.7C54.2,25.7,45,4.7,32,4.7z M45.4,50.5C41.8,54.1,37,56,32,56c-5,0-9.8-2-13.4-5.5
	c-3.6-3.6-5.5-8.3-5.5-13.4c0-8.1,4.7-20,11.2-25.8L30,21.5l-5.7,6.8c-0.5,0.6-0.5,1.4-0.1,2l6.4,9c0.3,0.5,0.8,0.7,1.3,0.7
	c0.3,0,0.7-0.1,1-0.3c0.7-0.5,0.9-1.6,0.4-2.3l-5.7-7.9l5.6-6.7c0.4-0.5,0.5-1.3,0.2-1.9L27.1,9.4C28.6,8.5,30.3,8,32,8
	c10.1,0,18.9,18.2,18.9,29.2C50.9,42.2,48.9,46.9,45.4,50.5z"/>
</svg>
