<?xml version="1.0" encoding="utf-8"?>
<!-- Generator: Adobe Illustrator 27.0.0, SVG Export Plug-In . SVG Version: 6.00 Build 0)  -->
<svg version="1.1" id="레이어_1" xmlns="http://www.w3.org/2000/svg" xmlns:xlink="http://www.w3.org/1999/xlink" x="0px"
	 y="0px" viewBox="0 0 64 64" style="enable-background:new 0 0 64 64;" xml:space="preserve">
<style type="text/css">
	.st0{fill:#FE724C;}
</style>
<path class="st0" d="M35.9,8.6c-6.2,0-12.1,2.5-16.5,6.8C15,19.9,12.5,25.8,12.5,32H4.7l10.1,10.1l0.2,0.4L25.5,32h-7.8
	c0-10,8.1-18.2,18.2-18.2c10,0,18.2,8.1,18.2,18.2c0,10-8.1,18.2-18.2,18.2c-5,0-9.6-2.1-12.8-5.3l-3.7,3.7c2.2,2.2,4.7,3.9,7.6,5.1
	c2.8,1.2,5.9,1.8,8.9,1.8c6.2,0,12.1-2.5,16.5-6.8c4.4-4.4,6.8-10.3,6.8-16.5c0-6.2-2.5-12.1-6.8-16.5C48,11.1,42.1,8.6,35.9,8.6z
	 M33.3,21.6v13l11,6.5l2-3.3l-9.1-5.4V21.6H33.3z"/>
</svg>
