<?xml version="1.0" encoding="utf-8"?>
<!-- Generator: Adobe Illustrator 27.0.0, SVG Export Plug-In . SVG Version: 6.00 Build 0)  -->
<svg version="1.1" id="레이어_1" xmlns="http://www.w3.org/2000/svg" xmlns:xlink="http://www.w3.org/1999/xlink" x="0px"
	 y="0px" viewBox="0 0 64 64" style="enable-background:new 0 0 64 64;" xml:space="preserve">
<style type="text/css">
	.st0{fill:#FE724C;}
</style>
<path class="st0" d="M32,59.1c-5.9,0-11.4-2.3-15.6-6.4C12.3,48.5,10,43,10,37.1c0-11.3,9.1-32.2,22-32.2s22,20.9,22,32.2
	c0,5.9-2.3,11.4-6.4,15.6C43.4,56.8,37.9,59.1,32,59.1z M32,8.3c-9.9,0-18.6,17.9-18.6,28.8c0,5,1.9,9.6,5.5,13.2
	c3.5,3.5,8.2,5.5,13.2,5.5c5,0,9.6-1.9,13.2-5.5c3.5-3.5,5.5-8.2,5.5-13.2C50.6,26.2,41.9,8.3,32,8.3z M29.8,36.6H34
	c-0.5-4.5,5.1-6,5.1-10.6c0-4.1-2.8-6.1-6.7-6.1c-2.8,0-5.1,1.3-6.8,3.2l2.6,2.4c1.1-1.1,2.2-1.8,3.6-1.8c1.7,0,2.7,1,2.7,2.6
	C34.6,29.4,29.1,31.4,29.8,36.6z M31.9,45.1c1.7,0,3-1.3,3-3.1c0-1.8-1.3-3.1-3-3.1c-1.7,0-2.9,1.3-2.9,3.1
	C29,43.8,30.2,45.1,31.9,45.1z"/>
</svg>
