<?xml version="1.0" encoding="utf-8"?>
<!-- Generator: Adobe Illustrator 27.0.0, SVG Export Plug-In . SVG Version: 6.00 Build 0)  -->
<svg version="1.1" id="레이어_1" xmlns="http://www.w3.org/2000/svg" xmlns:xlink="http://www.w3.org/1999/xlink" x="0px"
	 y="0px" viewBox="0 0 64 64" style="enable-background:new 0 0 64 64;" xml:space="preserve">
<path d="M53.5,56.4L35.6,38.5c-1.4,1.2-2.9,2.1-4.8,2.8c-1.8,0.7-3.7,1-5.8,1c-4.9,0-9-1.7-12.4-5.1c-3.4-3.4-5.1-7.5-5.1-12.3
	s1.7-8.9,5.1-12.3S20.2,7.5,25,7.5c4.8,0,8.9,1.7,12.3,5.1s5.1,7.5,5.1,12.3c0,1.9-0.3,3.8-1,5.6c-0.6,1.8-1.6,3.5-2.9,5.1
	l17.9,17.8L53.5,56.4z M25,38.2c3.7,0,6.8-1.3,9.4-3.9c2.6-2.6,3.9-5.7,3.9-9.4s-1.3-6.8-3.9-9.4s-5.7-3.9-9.4-3.9
	c-3.7,0-6.9,1.3-9.5,3.9s-3.9,5.7-3.9,9.4s1.3,6.8,3.9,9.4S21.3,38.2,25,38.2z"/>
</svg>
