<?xml version="1.0" encoding="utf-8"?>
<!-- Generator: Adobe Illustrator 27.0.0, SVG Export Plug-In . SVG Version: 6.00 Build 0)  -->
<svg version="1.1" id="레이어_1" xmlns="http://www.w3.org/2000/svg" xmlns:xlink="http://www.w3.org/1999/xlink" x="0px"
	 y="0px" viewBox="0 0 64 64" style="enable-background:new 0 0 64 64;" xml:space="preserve">
<style type="text/css">
	.st0{fill:#ADADAF;}
</style>
<path class="st0" d="M52.3,57.3c-1.4,0-2.5-1.1-2.5-2.5v-5.1c0-2-0.8-4-2.2-5.4s-3.4-2.2-5.4-2.2H21.9c-2,0-3.9,0.8-5.4,2.2
	c-1.4,1.4-2.2,3.4-2.2,5.4v5.1c0,1.4-1.1,2.5-2.5,2.5s-2.5-1.1-2.5-2.5v-5.1c0-3.4,1.3-6.6,3.7-8.9c2.4-2.4,5.6-3.7,9-3.7h20.3
	c3.4,0,6.6,1.3,8.9,3.7c2.4,2.4,3.7,5.6,3.7,8.9v5.1C54.8,56.2,53.7,57.3,52.3,57.3z M44.7,19.3c0-7-5.7-12.7-12.7-12.7
	s-12.7,5.7-12.7,12.7S25,32,32,32S44.7,26.3,44.7,19.3z M39.6,19.3c0,4.2-3.4,7.6-7.6,7.6s-7.6-3.4-7.6-7.6s3.4-7.6,7.6-7.6
	S39.6,15.2,39.6,19.3z"/>
</svg>
